<mxfile host="app.diagrams.net" modified="2023-09-14T06:45:41.173Z" agent="Mozilla/5.0 (X11; Ubuntu; Linux x86_64; rv:109.0) Gecko/20100101 Firefox/117.0" etag="Pn9UsRge9_9Jc7m-Y9wb" version="21.7.5" type="github">
  <diagram name="Страница — 1" id="LRi8mz9Ac1vkAMCG92qE">
    <mxGraphModel dx="2189" dy="729" grid="1" gridSize="10" guides="1" tooltips="1" connect="1" arrows="1" fold="1" page="1" pageScale="1" pageWidth="827" pageHeight="1169" math="0" shadow="0">
      <root>
        <mxCell id="0" />
        <mxCell id="1" parent="0" />
        <mxCell id="psM9mYJrSWVJbTP8HbJ--1" value="Agent" style="shape=umlActor;verticalLabelPosition=bottom;verticalAlign=top;html=1;outlineConnect=0;" parent="1" vertex="1">
          <mxGeometry x="525" y="170" width="30" height="60" as="geometry" />
        </mxCell>
        <mxCell id="psM9mYJrSWVJbTP8HbJ--13" value="" style="endArrow=classic;html=1;rounded=0;entryX=0.5;entryY=1;entryDx=0;entryDy=0;" parent="1" target="psM9mYJrSWVJbTP8HbJ--14" edge="1">
          <mxGeometry width="50" height="50" relative="1" as="geometry">
            <mxPoint x="540" y="250" as="sourcePoint" />
            <mxPoint x="540" y="330" as="targetPoint" />
          </mxGeometry>
        </mxCell>
        <mxCell id="psM9mYJrSWVJbTP8HbJ--14" value="/operator/signin" style="rounded=0;whiteSpace=wrap;html=1;direction=west;" parent="1" vertex="1">
          <mxGeometry x="480" y="290" width="120" height="60" as="geometry" />
        </mxCell>
        <mxCell id="psM9mYJrSWVJbTP8HbJ--15" value="" style="endArrow=classic;html=1;rounded=0;exitX=0.5;exitY=0;exitDx=0;exitDy=0;" parent="1" source="psM9mYJrSWVJbTP8HbJ--14" target="psM9mYJrSWVJbTP8HbJ--16" edge="1">
          <mxGeometry width="50" height="50" relative="1" as="geometry">
            <mxPoint x="560" y="440" as="sourcePoint" />
            <mxPoint x="540" y="400" as="targetPoint" />
          </mxGeometry>
        </mxCell>
        <mxCell id="psM9mYJrSWVJbTP8HbJ--16" value="check credentials type" style="rhombus;whiteSpace=wrap;html=1;" parent="1" vertex="1">
          <mxGeometry x="440" y="370" width="200" height="80" as="geometry" />
        </mxCell>
        <mxCell id="psM9mYJrSWVJbTP8HbJ--17" value="" style="endArrow=classic;html=1;rounded=0;exitX=1;exitY=0.5;exitDx=0;exitDy=0;entryX=0.5;entryY=0;entryDx=0;entryDy=0;" parent="1" source="psM9mYJrSWVJbTP8HbJ--16" target="psM9mYJrSWVJbTP8HbJ--21" edge="1">
          <mxGeometry width="50" height="50" relative="1" as="geometry">
            <mxPoint x="510" y="490" as="sourcePoint" />
            <mxPoint x="720" y="490" as="targetPoint" />
            <Array as="points">
              <mxPoint x="720" y="410" />
            </Array>
          </mxGeometry>
        </mxCell>
        <mxCell id="psM9mYJrSWVJbTP8HbJ--18" value="auth_token" style="text;html=1;align=center;verticalAlign=middle;resizable=0;points=[];autosize=1;strokeColor=none;fillColor=none;" parent="1" vertex="1">
          <mxGeometry x="630" y="378" width="80" height="30" as="geometry" />
        </mxCell>
        <mxCell id="psM9mYJrSWVJbTP8HbJ--19" value="kerberos ticket" style="text;html=1;strokeColor=none;fillColor=none;align=center;verticalAlign=middle;whiteSpace=wrap;rounded=0;" parent="1" vertex="1">
          <mxGeometry x="425" y="440" width="100" height="30" as="geometry" />
        </mxCell>
        <mxCell id="psM9mYJrSWVJbTP8HbJ--20" value="" style="endArrow=classic;html=1;rounded=0;exitX=0.5;exitY=1;exitDx=0;exitDy=0;entryX=0.5;entryY=0;entryDx=0;entryDy=0;" parent="1" source="psM9mYJrSWVJbTP8HbJ--16" target="psM9mYJrSWVJbTP8HbJ--22" edge="1">
          <mxGeometry width="50" height="50" relative="1" as="geometry">
            <mxPoint x="510" y="490" as="sourcePoint" />
            <mxPoint x="360" y="490" as="targetPoint" />
            <Array as="points">
              <mxPoint x="540" y="490" />
            </Array>
          </mxGeometry>
        </mxCell>
        <mxCell id="psM9mYJrSWVJbTP8HbJ--21" value="/agent/chat" style="rounded=1;whiteSpace=wrap;html=1;strokeWidth=3;" parent="1" vertex="1">
          <mxGeometry x="640" y="490" width="160" height="60" as="geometry" />
        </mxCell>
        <mxCell id="psM9mYJrSWVJbTP8HbJ--22" value="Kerberos authentication, receiving user name of agent in AD" style="rounded=0;whiteSpace=wrap;html=1;" parent="1" vertex="1">
          <mxGeometry x="460" y="490" width="160" height="60" as="geometry" />
        </mxCell>
        <mxCell id="psM9mYJrSWVJbTP8HbJ--23" value="" style="endArrow=classic;html=1;rounded=0;exitX=0;exitY=0.5;exitDx=0;exitDy=0;" parent="1" source="psM9mYJrSWVJbTP8HbJ--16" target="psM9mYJrSWVJbTP8HbJ--25" edge="1">
          <mxGeometry width="50" height="50" relative="1" as="geometry">
            <mxPoint x="310" y="490" as="sourcePoint" />
            <mxPoint x="160" y="410" as="targetPoint" />
            <Array as="points">
              <mxPoint x="-40" y="410" />
            </Array>
          </mxGeometry>
        </mxCell>
        <mxCell id="psM9mYJrSWVJbTP8HbJ--24" value="None" style="text;html=1;align=center;verticalAlign=middle;resizable=0;points=[];autosize=1;strokeColor=none;fillColor=none;" parent="1" vertex="1">
          <mxGeometry x="410" y="378" width="50" height="30" as="geometry" />
        </mxCell>
        <mxCell id="psM9mYJrSWVJbTP8HbJ--25" value="&lt;div&gt;Should auth by AD?&lt;/div&gt;&lt;div&gt;(depends on settings)&lt;/div&gt;" style="rhombus;whiteSpace=wrap;html=1;" parent="1" vertex="1">
          <mxGeometry x="-140" y="470" width="200" height="80" as="geometry" />
        </mxCell>
        <mxCell id="psM9mYJrSWVJbTP8HbJ--26" value="" style="endArrow=classic;html=1;rounded=0;exitX=1;exitY=0.5;exitDx=0;exitDy=0;" parent="1" source="psM9mYJrSWVJbTP8HbJ--25" edge="1">
          <mxGeometry width="50" height="50" relative="1" as="geometry">
            <mxPoint x="60" y="550" as="sourcePoint" />
            <mxPoint x="120" y="570" as="targetPoint" />
            <Array as="points">
              <mxPoint x="120" y="510" />
            </Array>
          </mxGeometry>
        </mxCell>
        <mxCell id="psM9mYJrSWVJbTP8HbJ--27" value="" style="endArrow=classic;html=1;rounded=0;" parent="1" source="psM9mYJrSWVJbTP8HbJ--25" edge="1">
          <mxGeometry width="50" height="50" relative="1" as="geometry">
            <mxPoint x="60" y="550" as="sourcePoint" />
            <mxPoint x="-200" y="570" as="targetPoint" />
            <Array as="points">
              <mxPoint x="-200" y="510" />
            </Array>
          </mxGeometry>
        </mxCell>
        <mxCell id="psM9mYJrSWVJbTP8HbJ--28" value="No" style="text;html=1;align=center;verticalAlign=middle;resizable=0;points=[];autosize=1;strokeColor=none;fillColor=none;" parent="1" vertex="1">
          <mxGeometry x="-200" y="478" width="40" height="30" as="geometry" />
        </mxCell>
        <mxCell id="psM9mYJrSWVJbTP8HbJ--29" value="Make common login page" style="rounded=1;whiteSpace=wrap;html=1;strokeWidth=3;" parent="1" vertex="1">
          <mxGeometry x="-260" y="570" width="120" height="60" as="geometry" />
        </mxCell>
        <mxCell id="psM9mYJrSWVJbTP8HbJ--30" value="&lt;div&gt;Make response 401&lt;/div&gt;&lt;div&gt;Header: &quot;WWW-Authenticate: Negitiate&quot;&lt;br&gt;&lt;/div&gt;" style="rounded=1;whiteSpace=wrap;html=1;glass=0;strokeWidth=3;" parent="1" vertex="1">
          <mxGeometry x="40" y="570" width="160" height="60" as="geometry" />
        </mxCell>
        <mxCell id="psM9mYJrSWVJbTP8HbJ--31" value="Yes" style="text;html=1;align=center;verticalAlign=middle;resizable=0;points=[];autosize=1;strokeColor=none;fillColor=none;" parent="1" vertex="1">
          <mxGeometry x="60" y="478" width="40" height="30" as="geometry" />
        </mxCell>
        <mxCell id="psM9mYJrSWVJbTP8HbJ--32" value="" style="endArrow=classic;html=1;rounded=0;dashed=1;entryX=1;entryY=0.5;entryDx=0;entryDy=0;exitX=0.75;exitY=0;exitDx=0;exitDy=0;" parent="1" source="psM9mYJrSWVJbTP8HbJ--30" target="psM9mYJrSWVJbTP8HbJ--14" edge="1">
          <mxGeometry width="50" height="50" relative="1" as="geometry">
            <mxPoint x="140" y="560" as="sourcePoint" />
            <mxPoint x="170" y="320" as="targetPoint" />
            <Array as="points">
              <mxPoint x="160" y="320" />
            </Array>
          </mxGeometry>
        </mxCell>
        <mxCell id="psM9mYJrSWVJbTP8HbJ--33" value="browser makes request with kerberos ticket" style="text;html=1;align=center;verticalAlign=middle;resizable=0;points=[];autosize=1;strokeColor=none;fillColor=none;" parent="1" vertex="1">
          <mxGeometry x="190" y="300" width="250" height="30" as="geometry" />
        </mxCell>
        <mxCell id="psM9mYJrSWVJbTP8HbJ--34" value="" style="endArrow=classic;html=1;rounded=0;exitX=0.5;exitY=1;exitDx=0;exitDy=0;entryX=0.5;entryY=0;entryDx=0;entryDy=0;" parent="1" source="psM9mYJrSWVJbTP8HbJ--22" target="psM9mYJrSWVJbTP8HbJ--35" edge="1">
          <mxGeometry width="50" height="50" relative="1" as="geometry">
            <mxPoint x="540" y="640" as="sourcePoint" />
            <mxPoint x="540" y="610" as="targetPoint" />
          </mxGeometry>
        </mxCell>
        <mxCell id="psM9mYJrSWVJbTP8HbJ--35" value="Get user entry from AD" style="rounded=0;whiteSpace=wrap;html=1;" parent="1" vertex="1">
          <mxGeometry x="460" y="570" width="160" height="60" as="geometry" />
        </mxCell>
        <mxCell id="psM9mYJrSWVJbTP8HbJ--36" value="" style="endArrow=classic;html=1;rounded=0;exitX=0.5;exitY=1;exitDx=0;exitDy=0;" parent="1" source="psM9mYJrSWVJbTP8HbJ--35" target="psM9mYJrSWVJbTP8HbJ--37" edge="1">
          <mxGeometry width="50" height="50" relative="1" as="geometry">
            <mxPoint x="560" y="760" as="sourcePoint" />
            <mxPoint x="540" y="660" as="targetPoint" />
          </mxGeometry>
        </mxCell>
        <mxCell id="psM9mYJrSWVJbTP8HbJ--37" value="&lt;div&gt;Check if agent with matched&amp;nbsp;&lt;/div&gt;&lt;div&gt;username exists in chat&lt;/div&gt;" style="rhombus;whiteSpace=wrap;html=1;" parent="1" vertex="1">
          <mxGeometry x="430" y="690" width="220" height="110" as="geometry" />
        </mxCell>
        <mxCell id="psM9mYJrSWVJbTP8HbJ--38" value="" style="endArrow=classic;html=1;rounded=0;exitX=0;exitY=0.5;exitDx=0;exitDy=0;entryX=0.5;entryY=0;entryDx=0;entryDy=0;" parent="1" source="psM9mYJrSWVJbTP8HbJ--37" target="psM9mYJrSWVJbTP8HbJ--39" edge="1">
          <mxGeometry width="50" height="50" relative="1" as="geometry">
            <mxPoint x="390" y="620" as="sourcePoint" />
            <mxPoint x="360" y="820" as="targetPoint" />
            <Array as="points">
              <mxPoint x="360" y="745" />
            </Array>
          </mxGeometry>
        </mxCell>
        <mxCell id="psM9mYJrSWVJbTP8HbJ--39" value="404 user_not_found" style="rounded=1;whiteSpace=wrap;html=1;strokeWidth=3;" parent="1" vertex="1">
          <mxGeometry x="294" y="820" width="136" height="60" as="geometry" />
        </mxCell>
        <mxCell id="psM9mYJrSWVJbTP8HbJ--40" value="" style="endArrow=classic;html=1;rounded=0;exitX=1;exitY=0.5;exitDx=0;exitDy=0;" parent="1" source="psM9mYJrSWVJbTP8HbJ--37" edge="1">
          <mxGeometry width="50" height="50" relative="1" as="geometry">
            <mxPoint x="390" y="740" as="sourcePoint" />
            <mxPoint x="740" y="820" as="targetPoint" />
            <Array as="points">
              <mxPoint x="740" y="745" />
            </Array>
          </mxGeometry>
        </mxCell>
        <mxCell id="psM9mYJrSWVJbTP8HbJ--41" value="No" style="text;html=1;align=center;verticalAlign=middle;resizable=0;points=[];autosize=1;strokeColor=none;fillColor=none;" parent="1" vertex="1">
          <mxGeometry x="400" y="718" width="40" height="30" as="geometry" />
        </mxCell>
        <mxCell id="psM9mYJrSWVJbTP8HbJ--42" value="Yes" style="text;html=1;align=center;verticalAlign=middle;resizable=0;points=[];autosize=1;strokeColor=none;fillColor=none;" parent="1" vertex="1">
          <mxGeometry x="640" y="718" width="40" height="30" as="geometry" />
        </mxCell>
        <mxCell id="psM9mYJrSWVJbTP8HbJ--43" value="set auth_token redirect to&lt;br&gt;&lt;div&gt;/agent/chat&lt;/div&gt;" style="rounded=1;whiteSpace=wrap;html=1;strokeWidth=3;" parent="1" vertex="1">
          <mxGeometry x="680" y="820" width="120" height="60" as="geometry" />
        </mxCell>
      </root>
    </mxGraphModel>
  </diagram>
</mxfile>
